# xmcd
#
# Track frame offsets: 
#        150
#        11664
#        24127
#        39229
#        51423
#        64157
#        74151
#        84591
#        97146
#        110602
#        126151
#        141303
#        152512
#        166713
#        179879
#
# Disc length: 2601 seconds
#
# Revision: 1
# Processed by: cddbd v1.5.2PL0 Copyright (c) Steve Scherf et al.
# Submitted via: ExactAudioCopy v0.99pb4
#
DISCID=d30a270f
DTITLE=Uncut Magazine - Uncut 145 - Greeting From The Boss (15 Tracks 
DTITLE=Handpicked By Bruce Springsteen) (2009)
DYEAR=2009
DGENRE=Rock and Roll
TTITLE0=Robert Mitchum - The Ballad Of Thunder Road
TTITLE1=Mississippi John Hurt - Candy Man Blues
TTITLE2=Neko Case - The Train From Kansas City
TTITLE3=Hank Williams - Lost Highway
TTITLE4=Amos Milburn - Chicken Shack Boogie
TTITLE5=Woody Guthrie - Hard Travelin'
TTITLE6=Jimmy Reed - Take Out Some Insurance
TTITLE7=Jimmie Rodgers - My Blue Eyed Jane
TTITLE8=Bascam Lamar Lunsford - Dry Bones
TTITLE9=Calexico - Across The Wire
TTITLE10=The Mississippi Sheiks - The World Is Going Wrong
TTITLE11=Gene Vincent - Baby Blue
TTITLE12=Mahalia Jackson - God's Gonna Separate The Wheat From The Tar
TTITLE12=es
TTITLE13=Chuck Berry - Too Much Monkey Business
TTITLE14=Louis Armstrong - St James Infirmary
EXTD=YEAR: 2009
EXTT0=
EXTT1=
EXTT2=
EXTT3=
EXTT4=
EXTT5=
EXTT6=
EXTT7=
EXTT8=
EXTT9=
EXTT10=
EXTT11=
EXTT12=
EXTT13=
EXTT14=
PLAYORDER=
